<svg xmlns="http://www.w3.org/2000/svg" width="344" height="65" viewBox="0 0 344 65">
  <defs>
    <style>
      .cls-1 {
        fill-rule: evenodd;
      }
    </style>
  </defs>
  <path id="text" class="cls-1" d="M68.012,43.266c0,15.055,12.661,21.727,26.729,21.727,17.146,0,26.114-8.383,26.114-19.589,0-13.857-13.98-16.68-18.64-17.792-15.739-3.678-18.728-4.7-18.728-9.238,0-5.132,5.1-6.929,9.5-6.929,4.308,0,10.727.257,12.4,7.356l13.365,1.882C118.745,6.57,106.7,1.01,93.6,1.01c-11.342,0-23.476,5.9-23.476,18.476,0,22.839,37.367,14.456,37.367,27.458,0,6.244-7.385,7.613-12.221,7.613-5.1,0-12.485-1.112-13.892-9.153ZM168.6,63.368h13.541V2.293H168.6V24.277H139.5V2.122H126.042V63.368H139.5v-26h29.1v26ZM231.112,39.16V27.271H202.449V13.5h32.444V2.208H189.085V63.454h48.8V52.162H202.449v-13h28.663Zm59.174,23.951V51.82h-32.18V2.208H244.565v60.9h45.721ZM311.563,39.16h28.663V27.271H311.563V13.5h32.444V2.208H298.2V63.539h13.364V39.16Z"/>
  <path id="book1" class="cls-1" d="M54.381,55.359A7.805,7.805,0,0,0,59.542,62.7,9.513,9.513,0,0,1,53.331,65H11.56a9.558,9.558,0,1,1,0-19.117h41.77a9.519,9.519,0,0,1,6.082,2.184A7.805,7.805,0,0,0,54.381,55.359Z"/>
  <path id="book2" class="cls-1" d="M49.978,38.69L8.6,45.268a9.451,9.451,0,0,1-6.446-1.285,7.758,7.758,0,0,0,3.967-8.019A7.757,7.757,0,0,0,0,29.6a9.456,9.456,0,0,1,5.62-3.085L47,19.933A9.5,9.5,0,0,1,49.978,38.69Z"/>
  <path id="book3" class="cls-1" d="M54.381,9.359A7.805,7.805,0,0,0,59.542,16.7,9.513,9.513,0,0,1,53.331,19H11.56a9.558,9.558,0,1,1,0-19.117h41.77a9.519,9.519,0,0,1,6.082,2.184A7.805,7.805,0,0,0,54.381,9.359Z"/>
</svg>
